M48
; DRILL file {KiCad 9.0.5} date 2025-10-11T13:35:24-0400
; FORMAT={-:-/ absolute / metric / decimal}
; #@! TF.CreationDate,2025-10-11T13:35:24-04:00
; #@! TF.GenerationSoftware,Kicad,Pcbnew,9.0.5
; #@! TF.FileFunction,Plated,1,2,PTH
FMAT,2
METRIC
; #@! TA.AperFunction,Plated,PTH,ViaDrill
T1C0.300
; #@! TA.AperFunction,Plated,PTH,ComponentDrill
T2C0.850
; #@! TA.AperFunction,Plated,PTH,ComponentDrill
T3C1.000
%
G90
G05
T1
X178.5Y-89.5
T2
X187.84Y-80.0
X187.84Y-95.24
X190.38Y-80.0
X190.38Y-95.24
X192.92Y-80.0
X192.92Y-95.24
X195.46Y-80.0
X195.46Y-95.24
X198.0Y-80.0
X198.0Y-95.24
X200.54Y-80.0
X200.54Y-95.24
X203.08Y-80.0
X203.08Y-95.24
T3
X156.5Y-88.88
X156.5Y-91.42
X156.5Y-93.96
X156.5Y-96.5
X165.38Y-56.5
X165.38Y-61.5
X167.92Y-56.5
X167.92Y-61.5
X170.46Y-56.5
X170.46Y-61.5
X173.0Y-56.5
X173.0Y-61.5
X175.54Y-56.5
X185.38Y-56.5
X185.38Y-62.0
X187.92Y-56.5
X187.92Y-62.0
X190.46Y-56.5
X193.0Y-56.5
X195.54Y-56.5
M30
